<svg xmlns="http://www.w3.org/2000/svg" width="30" height="30" viewBox="0 0 30 30">
  <g id="最后一页" transform="translate(-209 -180.713)">
    <rect id="矩形_346" data-name="矩形 346" width="30" height="30" transform="translate(209 180.713)" fill="#fca0a0" opacity="0"/>
    <path id="路径_600" data-name="路径 600" d="M91.889,54.914a.8.8,0,0,1-.844-.837V34a.8.8,0,0,1,.844-.836A.851.851,0,0,1,92.8,34V54.078A.851.851,0,0,1,91.889,54.914ZM88.976,43.2,78.4,33.165a1.025,1.025,0,0,0-1.344,0,.806.806,0,0,0,0,1.171l9.908,9.536-9.908,9.369a.806.806,0,0,0,0,1.171,1.025,1.025,0,0,0,1.344,0l10.58-10.038C89.311,44.207,89.311,43.538,88.976,43.2Z" transform="translate(139.2 151.799)" fill="#666"/>
  </g>
</svg>
